<svg width="34" height="34" viewBox="0 0 34 34" fill="none" xmlns="http://www.w3.org/2000/svg">
<path fill-rule="evenodd" clip-rule="evenodd" d="M27.9602 1.08906C27.1791 0.308013 25.9128 0.308012 25.1317 1.08906L17 9.22079L8.86827 1.08906C8.08722 0.308011 6.82089 0.308011 6.03985 1.08906L1.0901 6.03881C0.30905 6.81986 0.30905 8.08618 1.0901 8.86723L9.22183 16.999L1.0901 25.1307C0.30905 25.9117 0.309049 27.1781 1.0901 27.9591L6.03985 32.9089C6.82089 33.6899 8.08722 33.6899 8.86827 32.9089L17 24.7771L25.1317 32.9089C25.9128 33.6899 27.1791 33.6899 27.9602 32.9089L32.9099 27.9591C33.691 27.1781 33.691 25.9117 32.9099 25.1307L24.7782 16.999L32.9099 8.86724C33.691 8.08619 33.691 6.81986 32.9099 6.03881L27.9602 1.08906Z" fill="#090909"/>
</svg>
