<svg width="39" height="38" viewBox="0 0 39 38" fill="none" xmlns="http://www.w3.org/2000/svg">
<path fill-rule="evenodd" clip-rule="evenodd" d="M16 0C14.8955 0 14 0.894531 14 2V13.5H2.5C1.39551 13.5 0.5 14.3945 0.5 15.5V22.5C0.5 23.6055 1.39551 24.5 2.5 24.5H14V36C14 36.2969 14.064 36.5781 14.1787 36.8281C14.4937 37.5195 15.1904 38 16 38H23C24.1045 38 25 37.1055 25 36V24.5H36.5C37.6045 24.5 38.5 23.6055 38.5 22.5V15.5C38.5 14.7617 38.0991 14.1172 37.5034 13.7695C37.2085 13.5977 36.8657 13.5 36.5 13.5H25V2C25 1.41016 24.7451 0.878906 24.3394 0.515625C23.9849 0.195312 23.5151 0 23 0H16Z" fill="#090909"/>
</svg>
