<svg width="34" height="34" viewBox="0 0 34 34" fill="none" xmlns="http://www.w3.org/2000/svg">
<path fill-rule="evenodd" clip-rule="evenodd" d="M27.8303 1.08906C27.0492 0.308013 25.7829 0.308012 25.0018 1.08906L16.8701 9.22079L8.73839 1.08906C7.95734 0.308011 6.69101 0.308011 5.90996 1.08906L0.960216 6.03881C0.179167 6.81986 0.179167 8.08618 0.960215 8.86723L9.09194 16.999L0.960215 25.1307C0.179167 25.9117 0.179166 27.1781 0.960215 27.9591L5.90996 32.9089C6.69101 33.6899 7.95734 33.6899 8.73839 32.9089L16.8701 24.7771L25.0018 32.9089C25.7829 33.6899 27.0492 33.6899 27.8303 32.9089L32.78 27.9591C33.5611 27.1781 33.5611 25.9117 32.78 25.1307L24.6483 16.999L32.78 8.86724C33.5611 8.08619 33.5611 6.81986 32.78 6.03881L27.8303 1.08906Z" fill="#4177D6"/>
</svg>
